<?xml version="1.0" standalone="no"?>
<!DOCTYPE svg PUBLIC "-//W3C//DTD SVG 20010904//EN"
 "http://www.w3.org/TR/2001/REC-SVG-20010904/DTD/svg10.dtd">
<svg version="1.0" xmlns="http://www.w3.org/2000/svg"
 width="2400.000000pt" height="1697.000000pt" viewBox="0 0 2400.000000 1697.000000"
 preserveAspectRatio="xMidYMid meet">

<g transform="translate(0.000000,1697.000000) scale(0.100000,-0.100000)"
fill="#000000" stroke="none">
<path d="M4650 8837 l0 -2684 857 -6 c1071 -9 2923 -9 2923 -1 0 3 -13 23 -28
43 -37 47 -113 156 -178 256 -29 44 -56 85 -61 90 -4 6 -15 24 -23 40 -8 17
-19 37 -26 45 -6 8 -24 39 -39 68 -15 28 -31 52 -36 52 -5 0 -9 8 -9 18 0 9
-7 28 -15 42 -35 62 -115 234 -115 249 0 6 -3 11 -7 11 -10 0 -33 49 -33 69 0
9 -11 39 -25 66 -13 28 -25 58 -25 67 0 9 -4 19 -9 22 -5 4 -15 29 -22 56 -7
28 -16 50 -20 50 -3 0 -9 18 -13 41 -4 22 -13 50 -20 62 -8 12 -19 47 -26 77
-6 30 -15 64 -19 75 -23 59 -51 158 -61 215 -7 36 -16 74 -21 85 -5 11 -13 58
-19 104 -5 46 -14 89 -19 95 -6 7 -13 50 -16 96 -3 47 -10 112 -16 145 -5 33
-9 176 -9 318 l0 257 -727 1 c-401 1 -732 2 -738 4 -5 1 -205 3 -442 3 l-433
2 0 75 0 75 1169 0 1169 0 5 188 c5 187 22 349 51 472 9 36 16 77 16 93 0 15
4 35 9 45 5 9 14 46 21 82 11 61 42 170 60 215 5 11 14 45 20 75 7 30 18 65
26 77 7 12 16 40 20 62 4 23 9 41 13 41 4 0 13 21 20 48 8 26 17 52 21 57 4 6
10 27 14 48 4 20 11 37 16 37 6 0 10 11 10 25 0 14 4 25 9 25 5 0 12 15 15 34
4 19 13 39 21 46 8 7 15 17 15 23 0 5 11 33 24 61 13 28 38 81 55 118 18 37
36 70 41 73 6 3 10 15 10 26 0 11 6 22 14 25 8 3 18 19 21 35 4 16 10 29 15
29 5 0 12 9 15 20 3 11 12 26 18 33 17 18 37 55 37 67 0 6 5 16 10 23 19 22
100 142 115 170 l16 27 -1821 0 -1820 0 0 -2683z"/>
<path d="M15990 11478 c16 -22 30 -46 30 -52 1 -6 14 -27 30 -46 17 -19 30
-40 30 -47 0 -7 4 -13 10 -13 5 0 17 -17 25 -37 9 -21 22 -44 29 -53 8 -8 17
-26 21 -40 4 -14 10 -27 14 -30 16 -13 51 -71 57 -94 3 -14 10 -28 14 -31 4
-2 20 -31 34 -62 15 -32 38 -81 52 -109 13 -28 24 -58 24 -66 0 -9 7 -18 15
-22 8 -3 18 -23 21 -46 4 -22 10 -40 15 -40 5 0 9 -9 9 -19 0 -11 5 -23 10
-26 6 -3 10 -15 10 -27 0 -11 6 -32 14 -46 8 -15 20 -48 27 -74 8 -27 16 -48
20 -48 4 0 10 -19 14 -42 4 -24 13 -52 20 -64 8 -12 18 -43 23 -70 6 -27 15
-62 20 -79 22 -63 32 -102 32 -118 0 -9 4 -17 8 -17 4 0 13 -37 21 -82 7 -46
16 -87 21 -93 5 -6 12 -46 16 -90 4 -44 11 -85 15 -91 10 -12 22 -102 38 -285
14 -148 14 -222 0 -236 -17 -17 -18 -260 -1 -303 11 -27 13 -78 9 -240 -5
-203 -22 -421 -34 -450 -3 -8 -5 -19 -4 -24 1 -4 -2 -13 -7 -20 -5 -6 -12 -45
-16 -86 -4 -41 -10 -77 -14 -80 -5 -3 -14 -43 -22 -90 -7 -47 -16 -92 -21
-100 -9 -18 -28 -88 -32 -115 -2 -11 -8 -29 -14 -40 -6 -11 -13 -41 -17 -67
-4 -25 -13 -51 -20 -58 -8 -6 -17 -31 -20 -55 -4 -25 -11 -47 -17 -50 -5 -4
-9 -13 -9 -21 0 -19 -56 -167 -81 -215 -10 -20 -19 -46 -19 -57 0 -11 -7 -27
-15 -36 -8 -8 -15 -20 -15 -26 0 -6 -11 -33 -25 -60 -14 -27 -25 -56 -25 -65
0 -8 -4 -15 -9 -15 -5 0 -15 -17 -21 -37 -7 -21 -19 -45 -26 -54 -8 -8 -19
-30 -25 -47 -6 -18 -15 -32 -20 -32 -5 0 -9 -6 -9 -14 0 -8 -6 -21 -12 -28 -7
-7 -20 -26 -28 -43 -8 -16 -17 -32 -20 -35 -3 -3 -12 -18 -20 -35 -8 -16 -24
-43 -37 -60 -12 -16 -21 -32 -20 -35 0 -3 -8 -15 -18 -28 -11 -12 -29 -38 -40
-57 -34 -59 -113 -171 -130 -185 -8 -7 -15 -16 -15 -21 0 -5 -9 -18 -21 -30
-11 -11 -19 -23 -16 -25 5 -5 4188 -6 4193 -1 3 2 6 4892 4 5365 0 9 -413 12
-2030 12 l-2030 0 30 -42z m2092 -2102 c31 -13 69 -34 86 -47 48 -40 113 -131
125 -176 l11 -43 543 0 543 0 0 -80 0 -80 -545 0 -544 0 -11 -39 c-10 -38 -72
-126 -115 -164 -11 -10 -42 -29 -70 -42 -45 -22 -62 -25 -180 -25 -175 0 -193
9 -310 141 -17 19 -40 55 -50 81 -19 47 -21 48 -62 48 l-43 0 0 80 0 80 43 0
c42 0 43 1 54 43 12 45 77 136 125 176 60 49 134 71 243 71 82 0 110 -5 157
-24z"/>
<path d="M9134 11310 c21 -4 42 -13 47 -21 5 -8 9 -65 9 -126 l0 -113 25 0
c18 0 25 -5 25 -20 0 -19 -7 -20 -120 -20 -100 0 -120 3 -120 15 0 10 10 15
30 15 l30 0 0 113 c0 85 4 118 16 137 l16 25 -21 -24 c-19 -20 -21 -36 -21
-131 l0 -109 -27 -3 c-36 -4 -42 -34 -11 -56 l23 -17 -35 -5 c-28 -4 -36 -10
-38 -31 -2 -15 5 -32 18 -44 19 -18 20 -28 20 -395 0 -362 1 -377 20 -398 11
-12 20 -26 20 -32 0 -5 5 -10 10 -10 6 0 10 -10 10 -22 0 -34 48 -78 85 -78
33 0 52 16 73 60 7 14 24 40 37 59 l25 35 0 378 -1 379 23 18 c20 16 21 22 10
45 -14 31 -42 35 -42 6 0 -19 -7 -20 -140 -20 -77 0 -143 0 -147 0 -5 -1 -9 8
-11 20 -3 19 1 20 144 20 128 0 148 2 160 18 21 28 16 50 -16 69 l-30 17 0 99
c0 54 -4 107 -10 117 -11 21 -61 41 -99 39 -19 -1 -16 -3 13 -9z m106 -798 l0
-368 -25 -34 c-14 -19 -28 -36 -33 -39 -4 -3 -12 -19 -17 -36 -9 -26 -16 -30
-45 -30 -30 0 -36 4 -45 31 -5 17 -22 45 -37 63 l-28 33 0 374 0 374 115 0
115 0 0 -368z"/>
<path d="M9037 10853 c-4 -3 -7 -102 -7 -218 l0 -212 90 1 c50 1 91 5 94 11 2
6 1 103 -2 218 l-5 207 -82 0 c-45 0 -85 -3 -88 -7z m163 -168 l0 -135 -60 0
-60 0 0 135 0 135 60 0 60 0 0 -135z"/>
<path d="M9031 10226 c4 -76 7 -88 32 -113 15 -16 27 -38 27 -50 0 -21 26 -50
36 -41 2 3 9 20 14 37 8 29 7 31 -6 20 -13 -11 -19 -9 -35 11 -23 30 -33 65
-25 86 5 13 19 15 76 12 l71 -3 -3 60 -3 60 -94 3 -93 3 3 -85z"/>
<path d="M9197 10153 c-4 -3 -7 -13 -7 -22 1 -13 3 -13 11 2 11 19 8 33 -4 20z"/>
<path d="M9162 9803 c54 -89 98 -186 98 -218 0 -33 -44 -99 -76 -114 -54 -24
-174 -3 -174 31 0 6 -3 8 -7 5 -9 -9 26 -46 59 -63 42 -22 110 -18 149 9 47
32 79 83 79 127 0 63 -121 290 -155 290 -10 0 -2 -21 27 -67z"/>
<path d="M9072 9748 c-22 -40 -46 -86 -51 -101 -36 -95 29 -182 120 -162 25 6
27 9 16 25 -6 11 -24 25 -39 31 -16 6 -28 18 -28 25 0 8 -10 24 -22 36 l-21
21 37 74 c21 40 42 73 47 73 5 0 18 -18 29 -40 11 -22 23 -40 26 -40 6 0 -52
108 -65 123 -4 4 -26 -25 -49 -65z m-22 -161 c0 -26 25 -53 54 -58 11 -2 21
-10 24 -16 5 -16 -32 -17 -59 -3 -24 13 -52 67 -45 86 9 22 26 16 26 -9z"/>
<path d="M15218 9376 c-66 -27 -107 -59 -158 -124 -60 -76 -63 -85 -63 -222 0
-137 3 -146 63 -222 90 -114 143 -138 310 -138 110 0 131 3 175 24 56 26 119
85 165 153 30 46 30 47 30 185 0 138 -7 174 -36 191 -8 4 -14 14 -14 20 0 7
-8 20 -17 29 -10 9 -24 23 -30 30 -68 72 -140 98 -273 98 -77 0 -106 -5 -152
-24z"/>
<path d="M5601 5929 c-74 -9 -96 -26 -105 -81 -8 -44 -8 -44 80 -21 35 9 67
14 71 10 4 -4 -1 -87 -11 -185 -17 -173 -23 -393 -11 -412 15 -24 56 9 49 38
-7 24 21 247 46 367 24 116 25 145 5 171 -24 32 -18 36 46 32 60 -3 62 -2 65
23 4 39 -7 49 -72 59 -66 11 -72 11 -163 -1z"/>
<path d="M6083 5895 c-82 -65 -182 -239 -225 -390 -12 -44 -30 -89 -40 -101
-21 -24 -24 -52 -5 -60 7 -2 13 -26 14 -56 3 -94 52 -101 113 -16 60 84 58 83
81 54 26 -32 79 -35 127 -6 43 27 53 25 77 -13 12 -18 31 -33 44 -35 67 -10
154 38 144 79 -4 14 -11 18 -22 14 -63 -26 -72 -27 -96 -11 -14 9 -25 21 -25
28 0 6 20 34 43 62 56 65 67 87 67 128 0 127 -138 35 -179 -119 -12 -44 -51
-83 -82 -83 -20 0 -49 36 -49 60 0 9 -6 24 -13 34 -21 29 -52 5 -88 -67 -55
-110 -85 -128 -74 -44 9 63 16 78 69 142 98 118 163 225 195 324 15 46 18 68
10 82 -14 26 -48 24 -86 -6z m37 -70 c0 -33 -117 -231 -159 -269 l-21 -19 21
61 c28 85 124 232 151 232 4 0 8 -2 8 -5z m181 -334 c-28 -38 -44 -40 -30 -4
15 39 30 56 42 44 6 -6 2 -20 -12 -40z"/>
<path d="M7440 5887 c-96 -88 -175 -222 -216 -367 -14 -52 -35 -104 -45 -116
-23 -25 -25 -53 -4 -60 10 -4 15 -21 15 -53 0 -26 6 -56 14 -66 12 -16 18 -17
39 -8 14 6 38 29 53 50 15 21 37 48 48 61 l20 22 21 -26 c32 -40 84 -36 143
11 25 19 51 35 58 35 8 0 23 -19 35 -42 25 -50 35 -58 72 -58 43 0 75 21 157
104 41 42 78 76 83 76 4 0 6 -4 3 -9 -3 -4 -12 -48 -21 -96 -14 -79 -14 -91 0
-112 9 -12 22 -23 31 -23 8 0 45 29 81 65 36 36 72 65 78 65 7 0 22 -16 34
-35 18 -30 25 -35 59 -35 47 0 126 38 130 64 6 30 -11 38 -51 21 -45 -19 -87
-6 -87 26 0 11 20 44 45 71 53 59 74 116 57 153 -34 73 -143 -21 -176 -153
-10 -38 -22 -55 -67 -91 l-54 -45 -3 40 c-1 21 10 89 25 149 23 88 32 112 50
120 20 8 22 16 21 93 0 71 -2 83 -16 80 -9 -2 -27 -21 -39 -43 l-22 -40 -88
-5 -88 -5 0 -35 0 -35 68 -3 c60 -3 68 -5 62 -20 -16 -45 -77 -131 -139 -198
-56 -61 -73 -75 -95 -72 -23 3 -27 10 -39 63 -23 105 -41 109 -128 25 -84 -81
-109 -80 -135 8 -20 70 -52 52 -114 -67 -45 -85 -70 -95 -59 -23 10 67 16 79
75 152 83 102 145 204 178 290 36 93 37 106 12 120 -30 16 -43 12 -81 -23z
m40 -67 c0 -36 -153 -281 -166 -267 -9 9 27 100 63 160 56 92 103 141 103 107z
m733 -334 c-10 -14 -21 -26 -25 -26 -15 0 -8 28 14 56 18 23 23 25 26 11 2 -9
-5 -28 -15 -41z"/>
<path d="M9412 5893 c-69 -98 -138 -281 -157 -416 -5 -39 -15 -55 -52 -92 -28
-28 -54 -45 -69 -45 -24 0 -25 2 -51 110 -14 55 -43 52 -109 -12 -30 -29 -59
-53 -65 -53 -5 0 -22 23 -37 50 -23 43 -31 50 -57 50 -25 0 -33 -7 -49 -40
-29 -62 -83 -217 -91 -264 -4 -23 -9 -40 -12 -37 -5 5 3 57 29 181 6 28 30
112 54 188 44 137 52 177 35 177 -13 0 -32 -26 -56 -78 -25 -53 -110 -188
-125 -197 -17 -11 -29 -41 -21 -54 7 -10 12 -10 29 0 12 7 24 11 27 7 3 -3 -1
-39 -10 -79 -22 -103 -32 -294 -15 -304 24 -15 49 31 94 172 50 156 80 223 99
223 8 0 24 -11 37 -25 29 -31 71 -33 111 -4 38 26 51 21 80 -33 20 -35 30 -44
57 -46 35 -4 102 29 136 67 26 29 33 27 46 -14 15 -46 44 -65 101 -65 43 0 53
5 102 50 30 28 57 50 60 50 2 0 7 -14 11 -32 10 -52 32 -68 93 -68 l53 0 112
105 c62 58 118 105 125 105 14 0 16 -24 5 -85 -6 -34 -11 -40 -32 -40 -23 0
-25 -4 -28 -52 -4 -62 10 -95 36 -86 22 9 172 123 172 131 0 4 -4 13 -9 21 -7
11 -16 8 -45 -14 -20 -15 -38 -26 -40 -24 -2 2 5 31 15 64 11 33 22 90 26 127
6 66 6 67 -21 74 -28 7 -24 10 -246 -201 -34 -33 -77 -55 -106 -55 -24 0 -64
47 -64 76 0 14 13 45 29 69 102 151 175 347 157 421 -9 36 -57 33 -90 -7 -59
-70 -140 -278 -152 -390 -6 -61 -10 -69 -54 -113 -59 -58 -106 -70 -139 -35
-31 33 -27 78 12 135 90 133 140 262 141 359 l1 70 -31 3 c-25 2 -36 -3 -52
-25z m2 -212 c-23 -61 -74 -151 -85 -151 -5 0 0 24 12 53 11 28 25 68 31 87 6
19 20 48 32 65 18 25 21 27 24 11 2 -10 -4 -39 -14 -65z m284 37 c-5 -24 -23
-70 -39 -103 -57 -112 -80 -112 -34 0 14 33 25 64 25 69 0 13 43 76 51 76 4 0
3 -19 -3 -42z"/>
<path d="M10864 5878 c-103 -95 -186 -254 -230 -440 -7 -30 -112 -124 -125
-111 -9 10 12 125 40 221 15 50 27 71 40 75 18 4 20 14 19 91 0 63 -4 86 -14
86 -14 0 -50 -42 -59 -70 -5 -17 -18 -20 -93 -22 l-87 -3 -3 -37 -3 -38 70 0
c63 0 70 -2 64 -17 -13 -36 -77 -129 -119 -175 -41 -44 -54 -75 -37 -92 4 -3
33 19 66 51 37 37 57 51 54 38 -20 -73 -30 -176 -19 -199 19 -43 50 -33 122
40 l65 67 6 -52 c9 -70 15 -81 42 -81 26 0 48 21 97 93 l32 49 29 -31 c33 -36
60 -39 112 -11 20 11 37 16 37 11 0 -6 -4 -13 -10 -16 -15 -9 -12 -61 5 -75
22 -18 67 3 138 67 33 29 63 53 68 53 5 0 9 -11 9 -24 0 -45 52 -76 92 -55 13
6 60 49 105 95 44 46 84 84 87 84 3 0 2 -10 -3 -22 -21 -53 -34 -168 -23 -193
19 -42 51 -32 120 38 55 56 61 65 49 81 -12 17 -15 17 -44 -8 -17 -14 -34 -26
-38 -26 -16 0 7 124 52 282 3 9 13 18 23 21 19 5 33 54 20 76 -4 8 -4 27 1 43
19 67 -22 76 -58 13 l-22 -40 -88 -5 -88 -5 0 -35 0 -35 68 -3 c37 -2 67 -6
67 -9 0 -36 -189 -283 -217 -283 -19 0 -33 34 -33 79 0 58 -24 54 -107 -17
-78 -67 -93 -77 -93 -63 0 5 50 60 110 121 61 62 110 118 110 126 0 20 -50 18
-80 -3 -26 -17 -141 -114 -177 -149 -86 -82 -133 -81 -149 1 -13 74 -53 57
-103 -44 -22 -42 -46 -83 -55 -90 -14 -12 -16 -9 -16 25 1 62 21 103 103 207
86 110 167 262 174 329 5 41 3 46 -18 51 -36 10 -36 10 -85 -35z m8 -150 c-38
-73 -121 -192 -128 -185 -2 2 5 29 15 60 19 54 81 157 125 205 36 41 30 1 -12
-80z"/>
<path d="M12067 5888 c-39 -54 -64 -99 -91 -168 -31 -79 -66 -212 -66 -254 0
-19 -10 -40 -26 -57 -21 -22 -25 -34 -20 -54 6 -25 8 -26 25 -11 24 22 28 21
35 -16 10 -52 32 -68 93 -68 46 0 58 5 90 33 74 64 70 63 87 23 20 -49 53 -63
108 -47 24 7 53 22 65 33 l21 20 -5 -39 c-4 -28 -1 -42 11 -52 23 -19 61 -1
137 65 34 30 66 54 71 54 4 0 8 -11 8 -24 0 -68 90 -81 139 -22 21 25 32 19
20 -11 -5 -15 -8 -38 -4 -50 4 -19 12 -23 41 -23 29 0 43 8 84 53 27 28 59 67
72 86 13 19 27 34 33 33 5 0 15 -18 22 -39 26 -75 92 -96 145 -47 34 33 24 64
-17 57 -33 -7 -52 10 -65 57 -11 41 0 86 75 299 40 115 43 166 10 166 -24 0
-83 -104 -117 -208 -16 -49 -30 -73 -49 -85 -29 -18 -165 -141 -234 -211 -22
-23 -46 -41 -52 -41 -19 0 -33 35 -33 79 0 58 -24 54 -107 -17 -80 -68 -93
-77 -93 -62 0 6 50 61 110 122 61 62 110 118 110 125 0 19 -51 16 -80 -4 -14
-9 -55 -42 -91 -73 -64 -55 -81 -71 -138 -124 -42 -40 -86 -52 -116 -32 -14 9
-25 21 -25 27 0 6 19 32 41 57 23 26 50 66 61 90 16 36 17 46 6 70 -21 44 -61
42 -105 -5 -39 -42 -72 -106 -73 -140 0 -34 -66 -101 -111 -114 -48 -15 -84 5
-94 51 -6 26 3 46 51 127 91 152 146 313 130 377 -10 40 -58 36 -89 -6z m12
-170 c-11 -50 -65 -162 -87 -181 -13 -10 -14 -8 -8 17 4 16 16 48 27 70 10 22
19 48 19 57 0 15 45 79 55 79 2 0 -1 -19 -6 -42z m200 -227 c-21 -29 -39 -40
-39 -25 0 4 10 22 21 41 14 22 25 31 31 25 7 -7 2 -21 -13 -41z m721 3 c-21
-53 -118 -174 -141 -174 -16 0 29 76 81 139 54 65 76 78 60 35z"/>
<path d="M15817 5888 c-69 -94 -139 -275 -153 -395 -5 -52 -11 -66 -40 -94
-38 -37 -52 -33 -35 9 32 78 -14 156 -78 134 -28 -10 -31 -9 -31 9 0 41 -31
18 -211 -155 -129 -125 -229 -154 -229 -66 0 34 6 44 53 83 28 24 66 52 84 61
18 9 36 23 41 32 13 23 3 54 -16 54 -21 0 -98 -45 -152 -89 -25 -20 -60 -47
-78 -60 -26 -19 -32 -28 -27 -45 4 -11 9 -37 11 -56 6 -53 44 -85 102 -84 26
1 58 7 72 13 38 17 129 86 146 110 22 31 46 27 44 -6 -4 -50 0 -63 20 -83 27
-27 58 -25 123 9 34 18 64 27 80 24 18 -4 35 4 65 31 22 20 44 36 49 36 6 0
13 -13 16 -30 10 -46 40 -70 90 -70 46 0 95 28 146 84 36 39 53 34 45 -13 -5
-34 -3 -43 19 -65 15 -15 38 -26 52 -26 27 0 99 33 110 49 3 5 21 7 41 4 32
-5 39 -2 78 41 24 25 46 46 49 46 2 0 8 -21 12 -47 10 -68 20 -83 57 -83 26 0
42 11 84 55 52 55 74 67 74 42 0 -19 33 -47 54 -47 33 0 82 33 149 101 38 38
75 69 82 69 39 0 41 -77 4 -171 -13 -35 -15 -49 -6 -58 18 -18 30 -14 111 39
42 27 76 49 77 47 0 -1 1 -78 2 -172 2 -93 6 -178 11 -187 9 -20 37 -31 59
-23 26 11 75 118 112 246 32 112 71 189 94 189 5 0 12 -24 15 -52 9 -64 19
-78 59 -78 25 0 42 12 84 58 l53 57 26 -32 c14 -18 34 -33 45 -33 23 0 94 35
104 50 12 19 23 10 35 -25 15 -45 44 -65 95 -65 61 0 133 57 119 94 -8 20 -18
20 -34 1 -17 -20 -73 -29 -99 -16 -11 6 -25 28 -30 49 -10 34 -8 42 21 87 107
170 149 274 152 375 l1 65 -32 3 c-29 3 -36 -2 -67 -50 -67 -106 -123 -259
-141 -389 -4 -34 -14 -54 -40 -79 -44 -42 -61 -35 -70 29 -6 44 -10 51 -29 51
-16 0 -33 -16 -59 -53 -46 -67 -92 -111 -106 -103 -15 10 -14 62 4 126 8 30
18 70 22 89 6 31 5 33 -18 26 -13 -3 -33 -18 -44 -32 -11 -15 -42 -53 -70 -86
-79 -94 -94 -119 -115 -193 -26 -91 -70 -194 -83 -194 -14 0 -1 249 18 328 8
34 26 84 39 110 36 71 86 238 93 307 4 49 2 63 -12 75 -21 17 -43 5 -68 -37
-26 -45 -77 -197 -98 -298 -12 -52 -31 -107 -46 -130 -45 -69 -124 -125 -110
-77 30 103 31 111 18 151 -13 45 -71 94 -100 84 -29 -10 -49 -33 -54 -63 -7
-35 -113 -142 -136 -138 -10 2 -17 15 -19 33 -5 62 -12 75 -36 75 -16 0 -31
-13 -54 -47 -39 -61 -97 -117 -111 -109 -16 10 -13 49 11 147 12 49 19 91 16
94 -12 13 -55 -19 -91 -68 -46 -63 -104 -127 -116 -127 -5 0 -2 19 6 42 29 84
-12 152 -77 130 -27 -10 -30 -9 -30 9 0 37 -31 18 -143 -87 -145 -137 -186
-156 -232 -109 -36 35 -31 68 20 151 97 155 162 344 135 393 -17 32 -55 27
-83 -11z m16 -160 c-13 -72 -102 -232 -103 -187 0 24 60 182 77 202 24 26 33
21 26 -15z m2005 -60 c-32 -74 -68 -138 -79 -138 -13 0 -12 4 15 73 13 34 27
72 31 84 3 12 16 34 28 50 21 27 22 27 25 6 2 -12 -7 -45 -20 -75z m-669 -2
c-7 -20 -16 -36 -21 -36 -4 0 -5 6 -3 13 19 55 26 69 31 64 3 -3 0 -22 -7 -41z
m-1653 -204 c32 -22 9 -101 -41 -140 -29 -23 -70 -29 -80 -11 -16 24 7 79 48
119 43 40 54 45 73 32z m635 -2 c36 -20 16 -86 -42 -134 -52 -44 -91 -24 -75
38 5 20 80 106 93 106 2 0 13 -5 24 -10z"/>
<path d="M18366 5887 c-60 -78 -137 -280 -151 -392 -5 -44 -13 -67 -32 -87
-18 -18 -23 -32 -18 -47 5 -17 10 -19 25 -11 26 14 27 13 35 -17 12 -50 43
-73 97 -73 45 0 53 4 108 55 33 30 67 55 75 55 8 0 24 -19 36 -42 12 -24 27
-46 33 -50 22 -15 72 -7 108 17 20 13 41 26 47 27 9 2 13 -46 14 -173 2 -184
8 -209 48 -209 31 0 70 66 111 183 21 62 38 120 38 129 0 30 33 88 49 88 9 0
24 -14 33 -30 22 -38 37 -44 93 -36 40 6 105 46 105 64 -1 27 -18 31 -58 16
-38 -16 -43 -16 -67 0 -14 9 -25 21 -25 28 0 6 20 34 43 62 56 65 67 87 67
128 0 65 -39 76 -96 26 -36 -32 -84 -116 -84 -148 0 -9 -18 -39 -40 -69 -25
-33 -49 -82 -65 -134 -34 -108 -65 -187 -75 -187 -43 0 -3 324 56 449 71 152
109 350 72 374 -21 14 -53 -12 -75 -63 -32 -74 -72 -203 -88 -282 -24 -115
-85 -204 -136 -196 -20 2 -26 13 -37 63 -24 109 -42 110 -142 10 -53 -53 -84
-77 -107 -81 -45 -8 -80 16 -89 60 -5 30 1 46 54 131 86 136 144 306 128 371
-10 38 -58 33 -90 -9z m19 -159 c-15 -68 -94 -216 -102 -191 -2 6 7 39 22 74
14 34 25 67 25 73 0 18 39 76 51 76 7 0 8 -11 4 -32z m523 -56 c-14 -32 -34
-56 -24 -29 3 11 9 30 12 43 3 13 10 21 15 19 4 -3 3 -18 -3 -33z m203 -169
c-5 -11 -17 -25 -25 -33 -14 -10 -16 -10 -16 7 0 27 30 67 42 55 6 -6 6 -17
-1 -29z"/>
<path d="M13674 5788 c-5 -7 -15 -26 -24 -43 -15 -29 -17 -30 -102 -33 l-87
-3 -6 -29 c-4 -16 -4 -34 0 -40 3 -5 35 -10 71 -10 35 0 64 -4 64 -9 0 -20
-71 -128 -119 -182 -37 -42 -49 -61 -44 -77 3 -12 8 -22 11 -22 4 0 32 25 63
56 l57 56 -14 -63 c-19 -90 -18 -165 2 -173 32 -12 45 -4 123 74 45 44 85 80
91 80 6 0 8 -15 4 -38 -8 -53 23 -92 74 -92 35 0 99 30 114 54 5 8 11 7 20 -2
18 -18 33 -15 66 13 33 28 34 65 1 65 -17 0 -17 2 -3 35 21 52 18 92 -11 120
-27 28 -33 29 -69 15 -23 -8 -26 -7 -26 10 0 38 -30 20 -138 -81 -124 -117
-170 -154 -179 -145 -8 8 12 118 40 218 17 62 26 78 44 83 20 5 22 10 20 87
-2 68 -5 83 -19 86 -9 2 -20 -3 -24 -10z m300 -374 c-1 -31 -9 -45 -42 -76
-43 -40 -78 -49 -89 -22 -8 22 15 94 31 94 7 0 22 13 34 30 18 24 26 28 45 21
18 -7 22 -16 21 -47z"/>
<path d="M7662 5731 c-23 -21 -42 -43 -42 -49 0 -47 47 -56 85 -18 38 38 46
106 13 106 -7 0 -32 -17 -56 -39z"/>
<path d="M9074 5742 c-56 -48 -66 -94 -24 -107 30 -10 67 22 84 72 9 25 13 49
10 54 -10 16 -39 8 -70 -19z"/>
<path d="M18583 5731 c-62 -56 -55 -104 12 -87 49 12 86 116 45 124 -8 1 -34
-15 -57 -37z"/>
<path d="M7130 5604 c-6 -14 -10 -33 -10 -42 0 -47 -88 -222 -112 -222 -9 0
-6 130 4 210 2 19 -1 25 -17 25 -15 0 -31 -20 -61 -80 -23 -44 -50 -93 -60
-110 l-17 -30 -8 25 c-4 14 -7 62 -8 108 -1 45 -4 82 -7 82 -20 0 -47 -28 -79
-79 -19 -33 -49 -71 -65 -85 -30 -25 -38 -50 -20 -61 5 -3 27 10 49 30 45 41
43 45 62 -77 17 -110 49 -117 92 -20 14 31 33 66 41 77 14 19 15 17 16 -25 0
-48 17 -91 38 -98 38 -12 162 196 187 315 8 37 12 70 9 75 -10 15 -25 8 -34
-18z"/>
<path d="M14520 5566 c-25 -18 -81 -66 -125 -106 -73 -67 -80 -76 -82 -114 -1
-22 -4 -56 -5 -75 -2 -23 2 -37 14 -45 22 -13 61 8 137 76 61 53 71 57 71 28
0 -12 11 -32 26 -46 31 -32 65 -26 112 19 35 34 36 35 22 57 -7 12 -12 12 -29
-4 -30 -27 -51 -14 -51 33 0 92 -24 93 -125 5 -41 -37 -78 -64 -81 -62 -7 7
122 152 175 198 80 68 27 100 -59 36z"/>
</g>
</svg>
